# MagicaVoxel @ ephtracy

# material
mtllib maki_leg_left_01.mtl
usemtl palette

# normals
vn -1 0 0
vn 1 0 0
vn 0 0 1
vn 0 0 -1
vn 0 -1 0
vn 0 1 0

# texcoords
vt 0.923828 0.5
vt 0.955078 0.5
vt 0.974609 0.5
vt 0.990234 0.5

# verts
v -1 -8 1
v -1 -8 -1
v -1 -7 1
v -1 -7 -1
v -1 -6 1
v -1 -6 -1
v -1 -2 1
v -1 -2 -1
v -1 0 1
v -1 0 -1
v 1 -8 1
v 1 -8 -1
v 1 -7 1
v 1 -7 -1
v 1 -6 1
v 1 -6 -1
v 1 -2 1
v 1 -2 -1
v 1 0 1
v 1 0 -1
v -1 -8 1
v -1 -7 1
v -1 -6 1
v -1 -2 1
v -1 0 1
v 1 -8 1
v 1 -7 1
v 1 -6 1
v 1 -2 1
v 1 0 1
v -1 -8 -1
v -1 -7 -1
v -1 -6 -1
v -1 -2 -1
v -1 0 -1
v 1 -8 -1
v 1 -7 -1
v 1 -6 -1
v 1 -2 -1
v 1 0 -1
v -1 -8 1
v 1 -8 1
v -1 -8 -1
v 1 -8 -1
v -1 0 1
v 1 0 1
v -1 0 -1
v 1 0 -1

# faces
f 3/4/1 2/4/1 1/4/1
f 4/4/1 2/4/1 3/4/1
f 5/1/1 4/1/1 3/1/1
f 6/1/1 4/1/1 5/1/1
f 7/2/1 6/2/1 5/2/1
f 8/2/1 6/2/1 7/2/1
f 9/3/1 8/3/1 7/3/1
f 10/3/1 8/3/1 9/3/1
f 11/4/2 12/4/2 13/4/2
f 13/4/2 12/4/2 14/4/2
f 13/1/2 14/1/2 15/1/2
f 15/1/2 14/1/2 16/1/2
f 15/2/2 16/2/2 17/2/2
f 17/2/2 16/2/2 18/2/2
f 17/3/2 18/3/2 19/3/2
f 19/3/2 18/3/2 20/3/2
f 26/4/3 22/4/3 21/4/3
f 27/1/3 23/1/3 22/1/3
f 27/4/3 22/4/3 26/4/3
f 28/2/3 24/2/3 23/2/3
f 28/1/3 23/1/3 27/1/3
f 29/3/3 25/3/3 24/3/3
f 29/2/3 24/2/3 28/2/3
f 30/3/3 25/3/3 29/3/3
f 31/4/4 32/4/4 36/4/4
f 32/1/4 33/1/4 37/1/4
f 36/4/4 32/4/4 37/4/4
f 33/2/4 34/2/4 38/2/4
f 37/1/4 33/1/4 38/1/4
f 34/3/4 35/3/4 39/3/4
f 38/2/4 34/2/4 39/2/4
f 39/3/4 35/3/4 40/3/4
f 43/4/5 42/4/5 41/4/5
f 44/4/5 42/4/5 43/4/5
f 45/3/6 46/3/6 47/3/6
f 47/3/6 46/3/6 48/3/6
