# MagicaVoxel @ ephtracy

# material
mtllib yukari_head_flush_0.1.mtl
usemtl palette

# normals
vn -1 0 0
vn 1 0 0
vn 0 0 1
vn 0 0 -1
vn 0 -1 0
vn 0 1 0

# texcoords
vt 0.939453 0.5
vt 0.947266 0.5
vt 0.951172 0.5
vt 0.974609 0.5
vt 0.978516 0.5
vt 0.982422 0.5
vt 0.986328 0.5
vt 0.990234 0.5
vt 0.994141 0.5

# verts
v -5 0 2
v -5 0 1
v -5 0 -0
v -5 0 -1
v -5 10 2
v -5 10 1
v -5 10 -0
v -5 10 -1
v -4 0 4
v -4 0 3
v -4 2 4
v -4 2 3
v -4 2 2
v -4 2 -1
v -4 2 -4
v -4 3 4
v -4 3 3
v -4 6 4
v -4 6 3
v -4 10 4
v -4 10 2
v -4 10 -1
v -4 10 -4
v 3 0 4
v 3 0 3
v 3 2 4
v 3 2 3
v 4 0 2
v 4 0 1
v 4 0 -0
v 4 0 -1
v 4 2 2
v 4 2 1
v 4 2 -0
v 4 2 -1
v -4 0 2
v -4 0 1
v -4 0 -0
v -4 0 -1
v -4 2 2
v -4 2 1
v -4 2 -0
v -4 2 -1
v -3 0 4
v -3 0 3
v -3 2 4
v -3 2 3
v 4 0 4
v 4 0 3
v 4 2 4
v 4 2 3
v 4 2 2
v 4 2 -1
v 4 2 -4
v 4 3 4
v 4 3 3
v 4 6 4
v 4 6 3
v 4 10 4
v 4 10 2
v 4 10 -1
v 4 10 -4
v 5 0 2
v 5 0 1
v 5 0 -0
v 5 0 -1
v 5 10 2
v 5 10 1
v 5 10 -0
v 5 10 -1
v -4 0 4
v -4 2 4
v -4 3 4
v -4 6 4
v -4 10 4
v -3 0 4
v -3 2 4
v -3 3 4
v -3 4 4
v -3 6 4
v -3 7 4
v -3 8 4
v -2 3 4
v -2 4 4
v -2 5 4
v -2 6 4
v -2 7 4
v -2 8 4
v -1 4 4
v -1 5 4
v -1 6 4
v -1 7 4
v -1 8 4
v 0 6 4
v 0 7 4
v 0 8 4
v 1 4 4
v 1 5 4
v 1 6 4
v 2 3 4
v 2 4 4
v 2 5 4
v 2 6 4
v 2 7 4
v 2 8 4
v 3 0 4
v 3 2 4
v 3 3 4
v 3 4 4
v 3 6 4
v 3 7 4
v 3 8 4
v 4 0 4
v 4 2 4
v 4 3 4
v 4 6 4
v 4 10 4
v -5 0 2
v -5 10 2
v -4 0 2
v -4 2 2
v -4 10 2
v 4 0 2
v 4 2 2
v 4 10 2
v 5 0 2
v 5 10 2
v -4 0 3
v -4 2 3
v -3 0 3
v -3 2 3
v 3 0 3
v 3 2 3
v 4 0 3
v 4 2 3
v -5 0 -1
v -5 10 -1
v -4 0 -1
v -4 2 -1
v -4 10 -1
v 4 0 -1
v 4 2 -1
v 4 10 -1
v 5 0 -1
v 5 10 -1
v -4 2 -4
v -4 10 -4
v 4 2 -4
v 4 10 -4
v -4 0 4
v -3 0 4
v 3 0 4
v 4 0 4
v -4 0 3
v -3 0 3
v 3 0 3
v 4 0 3
v -5 0 2
v -4 0 2
v 4 0 2
v 5 0 2
v -5 0 1
v -4 0 1
v 4 0 1
v 5 0 1
v -5 0 -0
v -4 0 -0
v 4 0 -0
v 5 0 -0
v -5 0 -1
v -4 0 -1
v 4 0 -1
v 5 0 -1
v -3 2 4
v 3 2 4
v -4 2 3
v -3 2 3
v 3 2 3
v 4 2 3
v -4 2 2
v 4 2 2
v -4 2 1
v 4 2 1
v -4 2 -0
v 4 2 -0
v -4 2 -1
v 4 2 -1
v -3 2 -3
v 3 2 -3
v -4 2 -4
v 4 2 -4
v -4 10 4
v 4 10 4
v -5 10 2
v -4 10 2
v 4 10 2
v 5 10 2
v -5 10 1
v -2 10 1
v 2 10 1
v 5 10 1
v -5 10 -0
v -2 10 -0
v 2 10 -0
v 5 10 -0
v -5 10 -1
v -4 10 -1
v 4 10 -1
v 5 10 -1
v -4 10 -4
v 4 10 -4

# faces
f 5/8/1 2/8/1 1/8/1
f 6/9/1 3/9/1 2/9/1
f 6/8/1 2/8/1 5/8/1
f 7/8/1 4/8/1 3/8/1
f 7/9/1 3/9/1 6/9/1
f 8/8/1 4/8/1 7/8/1
f 11/6/1 10/6/1 9/6/1
f 12/6/1 10/6/1 11/6/1
f 16/9/1 12/9/1 11/9/1
f 17/8/1 13/8/1 12/8/1
f 17/9/1 12/9/1 16/9/1
f 18/6/1 17/6/1 16/6/1
f 19/8/1 13/8/1 17/8/1
f 19/6/1 17/6/1 18/6/1
f 20/8/1 19/8/1 18/8/1
f 21/8/1 13/8/1 19/8/1
f 21/8/1 19/8/1 20/8/1
f 22/8/1 15/8/1 14/8/1
f 23/8/1 15/8/1 22/8/1
f 26/6/1 25/6/1 24/6/1
f 27/6/1 25/6/1 26/6/1
f 32/8/1 29/8/1 28/8/1
f 33/9/1 30/9/1 29/9/1
f 33/8/1 29/8/1 32/8/1
f 34/8/1 31/8/1 30/8/1
f 34/9/1 30/9/1 33/9/1
f 35/8/1 31/8/1 34/8/1
f 36/8/2 37/8/2 40/8/2
f 37/9/2 38/9/2 41/9/2
f 40/8/2 37/8/2 41/8/2
f 38/8/2 39/8/2 42/8/2
f 41/9/2 38/9/2 42/9/2
f 42/8/2 39/8/2 43/8/2
f 44/6/2 45/6/2 46/6/2
f 46/6/2 45/6/2 47/6/2
f 48/6/2 49/6/2 50/6/2
f 50/6/2 49/6/2 51/6/2
f 50/9/2 51/9/2 55/9/2
f 51/8/2 52/8/2 56/8/2
f 55/9/2 51/9/2 56/9/2
f 55/6/2 56/6/2 57/6/2
f 56/8/2 52/8/2 58/8/2
f 57/6/2 56/6/2 58/6/2
f 57/8/2 58/8/2 59/8/2
f 58/8/2 52/8/2 60/8/2
f 59/8/2 58/8/2 60/8/2
f 53/8/2 54/8/2 61/8/2
f 61/8/2 54/8/2 62/8/2
f 63/8/2 64/8/2 67/8/2
f 64/9/2 65/9/2 68/9/2
f 67/8/2 64/8/2 68/8/2
f 65/8/2 66/8/2 69/8/2
f 68/9/2 65/9/2 69/9/2
f 69/8/2 66/8/2 70/8/2
f 76/6/3 72/6/3 71/6/3
f 77/9/3 73/9/3 72/9/3
f 77/6/3 72/6/3 76/6/3
f 78/6/3 74/6/3 73/6/3
f 78/9/3 73/9/3 77/9/3
f 79/6/3 74/6/3 78/6/3
f 80/8/3 75/8/3 74/8/3
f 80/6/3 74/6/3 79/6/3
f 81/8/3 75/8/3 80/8/3
f 82/8/3 75/8/3 81/8/3
f 83/1/3 79/1/3 78/1/3
f 83/4/3 78/4/3 77/4/3
f 84/7/3 80/7/3 79/7/3
f 84/1/3 79/1/3 83/1/3
f 85/7/3 80/7/3 84/7/3
f 86/3/3 81/3/3 80/3/3
f 86/7/3 80/7/3 85/7/3
f 87/6/3 82/6/3 81/6/3
f 87/3/3 81/3/3 86/3/3
f 88/8/3 75/8/3 82/8/3
f 88/6/3 82/6/3 87/6/3
f 89/5/3 85/5/3 84/5/3
f 89/4/3 84/4/3 83/4/3
f 90/2/3 86/2/3 85/2/3
f 90/5/3 85/5/3 89/5/3
f 91/4/3 87/4/3 86/4/3
f 91/2/3 86/2/3 90/2/3
f 92/3/3 88/3/3 87/3/3
f 92/4/3 87/4/3 91/4/3
f 93/8/3 75/8/3 88/8/3
f 93/3/3 88/3/3 92/3/3
f 94/4/3 90/4/3 89/4/3
f 94/3/3 92/3/3 91/3/3
f 94/4/3 91/4/3 90/4/3
f 95/6/3 93/6/3 92/6/3
f 95/3/3 92/3/3 94/3/3
f 96/8/3 75/8/3 93/8/3
f 96/6/3 93/6/3 95/6/3
f 97/4/3 95/4/3 94/4/3
f 97/4/3 89/4/3 83/4/3
f 97/4/3 94/4/3 89/4/3
f 98/4/3 95/4/3 97/4/3
f 99/4/3 95/4/3 98/4/3
f 100/4/3 83/4/3 77/4/3
f 100/4/3 97/4/3 83/4/3
f 101/5/3 98/5/3 97/5/3
f 101/4/3 97/4/3 100/4/3
f 102/2/3 99/2/3 98/2/3
f 102/5/3 98/5/3 101/5/3
f 103/4/3 95/4/3 99/4/3
f 103/2/3 99/2/3 102/2/3
f 104/3/3 96/3/3 95/3/3
f 104/4/3 95/4/3 103/4/3
f 105/8/3 75/8/3 96/8/3
f 105/3/3 96/3/3 104/3/3
f 107/4/3 100/4/3 77/4/3
f 108/1/3 101/1/3 100/1/3
f 108/4/3 100/4/3 107/4/3
f 109/7/3 103/7/3 102/7/3
f 109/1/3 101/1/3 108/1/3
f 109/7/3 102/7/3 101/7/3
f 110/3/3 104/3/3 103/3/3
f 110/7/3 103/7/3 109/7/3
f 111/6/3 105/6/3 104/6/3
f 111/3/3 104/3/3 110/3/3
f 112/8/3 75/8/3 105/8/3
f 112/6/3 105/6/3 111/6/3
f 113/6/3 107/6/3 106/6/3
f 114/9/3 108/9/3 107/9/3
f 114/6/3 107/6/3 113/6/3
f 115/6/3 109/6/3 108/6/3
f 115/9/3 108/9/3 114/9/3
f 115/6/3 110/6/3 109/6/3
f 116/8/3 111/8/3 110/8/3
f 116/6/3 110/6/3 115/6/3
f 116/8/3 112/8/3 111/8/3
f 117/8/3 75/8/3 112/8/3
f 117/8/3 112/8/3 116/8/3
f 120/8/3 119/8/3 118/8/3
f 121/8/3 119/8/3 120/8/3
f 122/8/3 119/8/3 121/8/3
f 126/8/3 124/8/3 123/8/3
f 126/8/3 125/8/3 124/8/3
f 127/8/3 125/8/3 126/8/3
f 128/6/4 129/6/4 130/6/4
f 130/6/4 129/6/4 131/6/4
f 132/6/4 133/6/4 134/6/4
f 134/6/4 133/6/4 135/6/4
f 136/8/4 137/8/4 138/8/4
f 138/8/4 137/8/4 139/8/4
f 139/8/4 137/8/4 140/8/4
f 141/8/4 142/8/4 144/8/4
f 142/8/4 143/8/4 144/8/4
f 144/8/4 143/8/4 145/8/4
f 146/8/4 147/8/4 148/8/4
f 148/8/4 147/8/4 149/8/4
f 154/6/5 151/6/5 150/6/5
f 155/6/5 151/6/5 154/6/5
f 156/6/5 153/6/5 152/6/5
f 157/6/5 153/6/5 156/6/5
f 162/8/5 159/8/5 158/8/5
f 163/8/5 159/8/5 162/8/5
f 164/8/5 161/8/5 160/8/5
f 165/8/5 161/8/5 164/8/5
f 166/9/5 163/9/5 162/9/5
f 167/9/5 163/9/5 166/9/5
f 168/9/5 165/9/5 164/9/5
f 169/9/5 165/9/5 168/9/5
f 170/8/5 167/8/5 166/8/5
f 171/8/5 167/8/5 170/8/5
f 172/8/5 169/8/5 168/8/5
f 173/8/5 169/8/5 172/8/5
f 177/4/5 175/4/5 174/4/5
f 178/4/5 175/4/5 177/4/5
f 180/8/5 177/8/5 176/8/5
f 181/8/5 179/8/5 178/8/5
f 182/8/5 177/8/5 180/8/5
f 183/8/5 181/8/5 178/8/5
f 184/8/5 177/8/5 182/8/5
f 185/8/5 183/8/5 178/8/5
f 186/8/5 177/8/5 184/8/5
f 187/8/5 185/8/5 178/8/5
f 188/4/5 178/4/5 177/4/5
f 188/8/5 177/8/5 186/8/5
f 189/8/5 187/8/5 178/8/5
f 189/4/5 178/4/5 188/4/5
f 190/8/5 188/8/5 186/8/5
f 190/8/5 189/8/5 188/8/5
f 191/8/5 187/8/5 189/8/5
f 191/8/5 189/8/5 190/8/5
f 192/8/6 193/8/6 195/8/6
f 195/8/6 193/8/6 196/8/6
f 194/8/6 195/8/6 198/8/6
f 196/8/6 197/8/6 198/8/6
f 195/8/6 196/8/6 198/8/6
f 198/8/6 197/8/6 199/8/6
f 199/8/6 197/8/6 200/8/6
f 200/8/6 197/8/6 201/8/6
f 198/9/6 199/9/6 202/9/6
f 199/8/6 200/8/6 203/8/6
f 202/9/6 199/9/6 203/9/6
f 200/9/6 201/9/6 204/9/6
f 203/8/6 200/8/6 204/8/6
f 204/9/6 201/9/6 205/9/6
f 202/8/6 203/8/6 206/8/6
f 203/8/6 204/8/6 206/8/6
f 204/8/6 205/8/6 206/8/6
f 206/8/6 205/8/6 207/8/6
f 207/8/6 205/8/6 208/8/6
f 208/8/6 205/8/6 209/8/6
f 207/8/6 208/8/6 210/8/6
f 210/8/6 208/8/6 211/8/6
