# MagicaVoxel @ ephtracy

# material
mtllib yukari_leg_0.2.mtl
usemtl palette

# normals
vn -1 0 0
vn 1 0 0
vn 0 0 1
vn 0 0 -1
vn 0 -1 0
vn 0 1 0

# texcoords
vt 0.951172 0.5
vt 0.974609 0.5
vt 0.982422 0.5
vt 0.990234 0.5
vt 0.994141 0.5

# verts
v -1 -8 1
v -1 -8 -1
v -1 -7 1
v -1 -7 -1
v -1 -6 1
v -1 -6 -1
v -1 -3 1
v -1 -3 -1
v -1 -2 1
v -1 -2 -1
v -1 0 1
v -1 0 -1
v 1 -8 1
v 1 -8 -1
v 1 -7 1
v 1 -7 -1
v 1 -6 1
v 1 -6 -1
v 1 -3 1
v 1 -3 -1
v 1 -2 1
v 1 -2 -1
v 1 0 1
v 1 0 -1
v -1 -8 1
v -1 -7 1
v -1 -6 1
v -1 -3 1
v -1 -2 1
v -1 0 1
v 1 -8 1
v 1 -7 1
v 1 -6 1
v 1 -3 1
v 1 -2 1
v 1 0 1
v -1 -8 -1
v -1 -7 -1
v -1 -6 -1
v -1 -3 -1
v -1 -2 -1
v -1 0 -1
v 1 -8 -1
v 1 -7 -1
v 1 -6 -1
v 1 -3 -1
v 1 -2 -1
v 1 0 -1
v -1 -8 1
v 1 -8 1
v -1 -8 -1
v 1 -8 -1
v -1 0 1
v 1 0 1
v -1 0 -1
v 1 0 -1

# faces
f 3/5/1 2/5/1 1/5/1
f 4/5/1 2/5/1 3/5/1
f 5/4/1 4/4/1 3/4/1
f 6/4/1 4/4/1 5/4/1
f 7/3/1 6/3/1 5/3/1
f 8/3/1 6/3/1 7/3/1
f 9/1/1 8/1/1 7/1/1
f 10/1/1 8/1/1 9/1/1
f 11/2/1 10/2/1 9/2/1
f 12/2/1 10/2/1 11/2/1
f 13/5/2 14/5/2 15/5/2
f 15/5/2 14/5/2 16/5/2
f 15/4/2 16/4/2 17/4/2
f 17/4/2 16/4/2 18/4/2
f 17/3/2 18/3/2 19/3/2
f 19/3/2 18/3/2 20/3/2
f 19/1/2 20/1/2 21/1/2
f 21/1/2 20/1/2 22/1/2
f 21/2/2 22/2/2 23/2/2
f 23/2/2 22/2/2 24/2/2
f 31/5/3 26/5/3 25/5/3
f 32/4/3 27/4/3 26/4/3
f 32/5/3 26/5/3 31/5/3
f 33/3/3 28/3/3 27/3/3
f 33/4/3 27/4/3 32/4/3
f 34/1/3 29/1/3 28/1/3
f 34/3/3 28/3/3 33/3/3
f 35/2/3 30/2/3 29/2/3
f 35/1/3 29/1/3 34/1/3
f 36/2/3 30/2/3 35/2/3
f 37/5/4 38/5/4 43/5/4
f 38/4/4 39/4/4 44/4/4
f 43/5/4 38/5/4 44/5/4
f 39/3/4 40/3/4 45/3/4
f 44/4/4 39/4/4 45/4/4
f 40/1/4 41/1/4 46/1/4
f 45/3/4 40/3/4 46/3/4
f 41/2/4 42/2/4 47/2/4
f 46/1/4 41/1/4 47/1/4
f 47/2/4 42/2/4 48/2/4
f 51/5/5 50/5/5 49/5/5
f 52/5/5 50/5/5 51/5/5
f 53/2/6 54/2/6 55/2/6
f 55/2/6 54/2/6 56/2/6
